<svg width="785px" height="510px" viewBox="0 0 785 510" version="1.1" xmlns="http://www.w3.org/2000/svg" xmlns:xlink="http://www.w3.org/1999/xlink">
    <!-- Generator: Sketch 52.3 (67297) - http://www.bohemiancoding.com/sketch -->
    <title>Group 7</title>
    <desc>Created with Sketch.</desc>
    <g id="Page-1" stroke="none" stroke-width="1" fill="none" fill-rule="evenodd">
        <g id="Contact" transform="translate(-595.000000, -207.000000)">
            <g id="Fill-1">
                <g id="Group-7" transform="translate(594.000000, 207.000000)">
                    <path d="M756.398438,483 C756.398438,459.412109 750.768789,441.184588 744.803711,424 C741.73685,411.073526 735.622806,376.121685 737.821289,364 C739.413821,357 746.128611,323.484375 752.993347,314.173033 C763.849782,299.447342 778.36329,206.777528 746.128611,189.731854 C744.286455,188.757407 743.846486,185.125192 742.754385,182.730953 C755.089829,159.819531 783.42259,147.420015 785.778157,117.793693 C781.037103,120.188612 778.302769,124.349249 774.560655,127.171128 C764.365893,134.861837 753.746802,141.986673 743.294315,149.335543 C738.733465,80.6863948 685.584292,11.8765416 627.581183,0 C620.621925,52.0992099 637.284975,96.3524527 675.806378,130.37298 C690.146502,143.037387 702.180701,164.578727 727.430961,160.141622 C727.092994,166.367597 726.755028,172.59289 726.417061,178.818184 C724.3437,179.537953 722.271699,180.259085 720.200378,180.979536 C706.258061,179.890688 691.810495,175.983367 678.499231,178.38782 C659.448654,181.829368 619.34554,202.157927 617.692427,205.256274 C613.846271,209.378777 609.359542,213.078407 606.258,217.708903 C589.61127,242.566496 570.954421,265.264779 543.726681,279.310845 C542.314293,280.134801 540.899865,280.960118 539.485437,281.785436 C533.742724,283.2277 528.00001,284.669963 522.257976,286.112907 C518.613784,287.87522 514.970272,289.638213 511.325399,291.401206 C510.272739,292.333434 440.255151,314.610887 417.154414,344.606288 C402.145836,359.503547 387.137939,374.401487 372.130042,389.298746 C330.6499,425.321282 320.383056,469.223833 342.063926,517.864471 C342.063926,517.86379 342.152328,517.839276 342.28697,517.803866 C342.153008,517.839957 342.063926,517.86379 342.064606,517.864471 C351.259748,588.099564 421.5303,638.730634 485.841894,636.256723 C491.036517,631.708623 491.037877,631.707942 485.845975,636.257404 C498.2501,635.958465 508.392501,637.456567 516.563543,650.069221 C522.023371,658.496724 534.273814,662.512998 543.483237,668.502 C552.857222,673.094363 562.229168,677.685364 571.601114,682.276364 C591.893396,683.936533 612.184318,685.597383 632.47592,687.257552 C632.47728,687.263 632.535081,687.263 632.535081,687.262319 C640.889046,684.455421 649.420495,682.084335 657.564337,678.763316 C690.177103,665.46494 706.914954,635.345605 727.915131,610.10123 C732.059813,605.120723 753.689001,531.986803 754.516578,526.989953 C757.372634,509.753612 756.398438,495.412109 756.398438,483 Z" id="Fill-1" fill="#8BCCBB"></path>
                    <path d="M121.694984,376.726279 C119.634074,375.958406 117.562984,375.040484 115.415823,374.709412 C106.979322,373.407554 101.134093,369.314015 98.3987123,360.88344 C97.5383477,358.228994 95.2411851,356.016155 93.507063,353.670353 C92.2883025,352.022472 90.6607885,350.634641 89.6466726,348.882632 C87.3912961,344.987203 84.3741272,341.960034 81.0060625,339.319472 L117.038516,356.570967 C117.038516,356.570967 132.118467,365.665287 132.00543,366.813357 C131.590784,371.018499 131.194888,375.224709 130.706312,380.319472 C127.128245,378.885185 124.434115,377.74726 121.694984,376.726279 Z M238.905528,348.497881 C235.836508,350.45425 232.908868,352.630666 229.89064,354.726066 C229.652386,354.669095 229.346584,354.651847 229.098381,354.524314 C228.588361,354.2635 228.08829,353.97237 227.619638,353.642563 C219.916453,348.217728 212.016906,343.340655 202.475241,341.590742 C185.112574,338.406611 169.242788,341.22487 155.133461,352.273679 C153.980942,353.175292 152.323639,353.691171 150.83966,353.865745 C146.129045,354.421347 141.391202,354.749064 136.659642,355.118595 C135.67678,355.195428 134.595475,355.312507 133.700584,355.004129 C128.38046,353.170065 122.870779,351.682012 117.853839,349.211331 C105.053598,342.907881 92.4931809,336.121479 79.8049974,329.58962 C76.6092571,327.943719 73.260092,326.596788 70.0470717,324.982247 C67.5346742,323.719989 64.6447363,322.726385 62.7502273,320.801376 C54.7553784,312.676929 47.0715682,304.248285 39.2725585,295.932017 C37.3073589,293.836093 35.3557738,291.727626 33.3670106,289.654177 C31.6421591,287.856178 29.7544573,287.799207 28.1097219,289.630657 C26.1424277,291.820139 24.3783037,294.191512 22.7984989,296.146313 C27.1279075,299.993718 31.1865972,303.401031 35.0070333,307.056091 C38.5488959,310.44511 41.8891593,314.049994 45.2262809,317.645993 C52.7634734,325.766781 60.2896696,333.898546 67.6907172,342.14164 C68.6803861,343.24396 74.6807119,352.094402 76.2259568,353.738735 C80.3757589,358.154286 84.697313,362.418785 88.6648903,366.990093 C91.4867557,370.240604 92.745049,374.224426 92.3737922,378.625866 C92.064848,382.293993 91.8313071,385.968915 91.5029884,390.479593 C89.0408597,393.31301 84.5046155,400.747005 85.0560025,400.632016 C81.5356089,403.920159 78.2068655,407.030593 75.4933924,409.565563 C72.3191211,409.301613 70.0517844,408.923719 67.7902078,408.955602 C53.4106854,409.156832 42.9924568,416.794147 34.5823659,427.461927 C31.2541461,431.683044 28.3045139,436.587295 26.6477349,441.657235 C23.0959232,452.523631 23.0723597,463.836913 25.6905313,474.940603 C27.3096087,481.808542 30.9614345,487.583046 37.1843048,491.62384 C43.2034815,495.532398 49.4975661,498.492302 56.6797346,499.202616 C57.0384241,501.062813 57.1332019,502.684671 57.6783052,504.138751 C58.6705923,506.783482 57.8594827,508.698038 56.1838528,510.835775 C53.7086334,513.994295 51.4774275,517.390109 49.5111806,520.891503 C41.0262099,535.9994 41.3723322,551.329956 49.5431223,566.300913 C55.6947784,577.570291 67.5299615,586.18971 86.0818021,583.84029 C101.286049,581.914758 111.566038,573.268682 118.44764,560.045026 C119.128365,558.737295 119.748871,557.398204 120.697173,555.461173 C128.169959,570.409654 138.740041,580.063446 155.027163,581.860923 C171.78032,583.709099 183.23901,575.098564 192.317259,561.518444 C207.253404,570.231945 221.305655,569.15785 234.064529,558.669347 C237.278073,562.095999 239.901481,565.339715 242.977309,568.077482 C248.550873,573.037138 253.951637,578.644909 262.089438,578.975239 C266.360724,579.148244 270.669187,578.579052 274.949897,578.216316 C276.554837,578.080421 278.128358,577.578131 280.56221,577.064865 C272.514998,585.210742 268.323829,593.944627 268.211247,604.435743 C268.133226,611.721298 268.351581,618.713111 270.70427,626.00912 C272.835986,632.621471 274.406365,639.260478 278.557738,644.910063 C284.879052,653.513803 292.558673,660.036776 303.648201,661.935652 C311.714264,663.316034 318.754527,660.36972 325.897947,657.81907 C332.135479,655.591432 337.782352,652.179938 342.234814,646.766602 C343.249094,650.250225 343.78163,653.480874 344.377002,656.699502 C346.138508,666.233079 350.734447,674.581753 357.706638,680.891476 C367.455662,689.714216 386.236331,687.224719 394.746436,676.921765 C398.143775,672.809365 401.455762,668.627972 404.790266,664.464872 C409.064693,659.127323 411.261339,652.956109 409.824486,646.301944 C408.228449,638.911332 406.12501,631.540058 403.315188,624.53152 C401.484562,619.965961 397.998729,616.062107 395.229227,611.82322 C398.497228,608.770803 401.478279,606.065964 404.368217,603.268089 C409.30347,598.490324 412.60865,592.862169 412.792969,585.822793 C412.855805,583.405425 412.363589,580.978126 412.305466,578.550827 C411.882369,560.720321 401.465188,546.927472 384.430316,541.401761 C382.890831,540.902084 381.362866,539.437551 380.472164,538.019013 C372.205025,524.852328 361.423394,515.77975 344.956666,515.594201 C343.03388,515.572248 341.111095,515.45726 338.828573,515.372064 C349.219573,506.039717 351.613629,498.868104 354.781093,486.283678 C357.075658,477.168241 356.682409,467.832235 350.195627,459.998394 C348.010501,457.359412 345.513812,454.893436 342.821285,452.774514 C335.084064,446.68536 326.449334,443.20226 316.328006,444.484379 C314.120363,444.76401 311.86507,444.670974 309.829704,444.74258 C306.479491,433.568852 303.018268,423.213631 293.88818,415.351566 C294.957965,413.350247 295.874849,411.295092 297.083921,409.4281 C306.137558,395.446043 308.35672,380.907861 300.582845,365.645252 C299.310414,363.146347 297.690289,360.545521 295.562763,358.806584 C284.659125,349.890808 272.063101,344.951014 257.97472,344.02379 C251.197321,343.577426 244.716299,344.794734 238.905528,348.497881 Z" id="Fill-1" fill="#A02562" transform="translate(217.798499, 487.281206) rotate(-7.000000) translate(-217.798499, -487.281206) "></path>
                </g>
            </g>
        </g>
    </g>
</svg>
