<svg width="25px" height="25px" viewBox="0 0 25 25" version="1.1" xmlns="http://www.w3.org/2000/svg" xmlns:xlink="http://www.w3.org/1999/xlink">
    <!-- Generator: Sketch 52.3 (67297) - http://www.bohemiancoding.com/sketch -->
    <title>Fill 1</title>
    <desc>Created with Sketch.</desc>
    <g id="Page-1" stroke="none" stroke-width="1" fill="none" fill-rule="evenodd">
        <g id="Homepage-Copy-2" transform="translate(-664.000000, -4194.000000)">
            <g id="Group-10" transform="translate(0.000000, 3820.000000)">
                <g id="Footer">
                    <g id="Page"></g>
                    <g id="Group" transform="translate(664.000000, 374.000000)" fill="#FFFFFF">
                        <path d="M22.565,20.1691667 C22.565,21.4908333 21.4891667,22.565 20.1675,22.565 L4.83083333,22.565 C3.50916667,22.565 2.435,21.4908333 2.435,20.1691667 L2.435,9.935 L6.16666667,9.935 C5.845,10.7275 5.66416667,11.5933333 5.66416667,12.5 C5.66416667,16.2691667 8.73,19.3358333 12.5,19.3358333 C16.2691667,19.3358333 19.3358333,16.2691667 19.3358333,12.5 C19.3358333,11.5933333 19.1533333,10.7275 18.8316667,9.935 L22.565,9.935 L22.565,20.1691667 Z M8.9325,9.935 C9.73333333,8.82666667 11.0316667,8.10083333 12.5,8.10083333 C13.9683333,8.10083333 15.2666667,8.82666667 16.0675,9.935 C16.5883333,10.6575 16.9008333,11.5425 16.9008333,12.5 C16.9008333,14.925 14.925,16.8991667 12.5,16.8991667 C10.0733333,16.8991667 8.09916667,14.925 8.09916667,12.5 C8.09916667,11.5425 8.41166667,10.6575 8.9325,9.935 Z M21.5541667,2.8825 L22.1058333,2.87916667 L22.1058333,3.43083333 L22.1058333,7.11583333 L17.8841667,7.13083333 L17.8691667,2.89416667 L21.5541667,2.8825 Z M20.1675,0 L4.83083333,0 C2.16583333,0 0,2.16583333 0,4.83083333 L0,9.935 L0,20.1691667 C0,22.8333333 2.16583333,25 4.83083333,25 L20.1675,25 C22.8316667,25 25,22.8333333 25,20.1691667 L25,9.935 L25,4.83083333 C25,2.16583333 22.8316667,0 20.1675,0 Z" id="Fill-1"></path>
                    </g>
                </g>
            </g>
        </g>
        <g id="Page"></g>
    </g>
</svg>
