<svg width="25px" height="25px" viewBox="0 0 25 25" version="1.1" xmlns="http://www.w3.org/2000/svg" xmlns:xlink="http://www.w3.org/1999/xlink">
    <!-- Generator: Sketch 52.3 (67297) - http://www.bohemiancoding.com/sketch -->
    <title>Group 8</title>
    <desc>Created with Sketch.</desc>
    <g id="Page-1" stroke="none" stroke-width="1" fill="none" fill-rule="evenodd">
        <g id="Homepage-Copy-2" transform="translate(-714.000000, -4194.000000)">
            <g id="Group-10" transform="translate(0.000000, 3820.000000)">
                <g id="Footer">
                    <g id="Page"></g>
                    <g id="Group" transform="translate(664.000000, 374.000000)" fill="#FFFFFF">
                        <g id="Group-8" transform="translate(50.000000, 0.000000)">
                            <path d="M25.0000833,15.8405833 C25.0000833,11.3439167 24.0300833,8.33308333 18.7875833,8.33308333 C16.2675833,8.33308333 14.57675,9.26891667 13.8850833,10.58225 L13.8134167,10.58225 L13.8134167,8.33308333 L9.16675,8.33308333 L9.16675,24.99975 L14.0234167,24.99975 L14.0234167,16.7389167 C14.0234167,14.5605833 14.4350833,12.4514167 17.1309167,12.4514167 C19.7850833,12.4514167 20.0000833,14.94225 20.0000833,16.8789167 L20.0000833,24.99975 L25.0000833,24.99975 L25.0000833,15.8405833 Z" id="Fill-4"></path>
                            <path d="M2.91675,5.83333333 C4.52591667,5.83333333 5.83341667,4.52666667 5.83341667,2.91666667 C5.83341667,1.30583333 4.52591667,0 2.91675,0 C1.30425,0 8.33333333e-05,1.30583333 8.33333333e-05,2.91666667 C8.33333333e-05,4.52666667 1.30425,5.83333333 2.91675,5.83333333" id="Fill-2"></path>
                            <polygon id="Fill-1" points="0 25 5.83333333 25 5.83333333 8.33333333 0 8.33333333"></polygon>
                        </g>
                    </g>
                </g>
            </g>
        </g>
        <g id="Page"></g>
    </g>
</svg>
